# xmcd
#
# Track frame offsets: 
#        150
#        14388
#        28630
#        41293
#        55955
#        69520
#        83128
#        96845
#        107683
#        121863
#        134993
#        148365
#        160618
#        175153
#        188840
#        202448
#
# Disc length: 2862 seconds
#
# Revision: 2
# Processed by: cddbd v1.5.2PL0 Copyright (c) Steve Scherf et al.
# Submitted via: ExactAudioCopy v0.99pb5
#
DISCID=e70b2c10
DTITLE=The Carter Family - Country Music Hall of Fame Series
DYEAR=1991
DGENRE=Country
TTITLE0=You Are My Flower
TTITLE1=Hold Fast To the Right
TTITLE2=Hello Stranger
TTITLE3=In the Shadow of Clinch Mountain
TTITLE4=Coal Miner's Blues
TTITLE5=Lover's Lane
TTITLE6=Bonnie Blue Eyes
TTITLE7=You're Nothing More To Me
TTITLE8=Answer To Weeping Willow
TTITLE9=Charlie and Nellie
TTITLE10=My Dixie Darling
TTITLE11=Oh Take Me Back
TTITLE12=Dark Haired True Lover
TTITLE13=Just a Few More Days
TTITLE14=Young Freda Bolt
TTITLE15=You Denied Your Love
EXTD=
EXTT0=
EXTT1=
EXTT2=
EXTT3=
EXTT4=
EXTT5=
EXTT6=
EXTT7=
EXTT8=
EXTT9=
EXTT10=
EXTT11=
EXTT12=
EXTT13=
EXTT14=
EXTT15=
PLAYORDER=
